/* XPM */
static char * BoXZY_64x72b_xpm[] = {
"64 72 2 1",
" 	c None",
".	c #000000",
"                                 ..................             ",
"                   ...................            ..            ",
"                  ..                               .            ",
"                 ..                                 .        .. ",
"                 ..                            ..   .   ..   ...",
"                ...                          .. ..  .  ...    ..",
"                ...           ......  .     ..    .  . ..     ..",
"               ....         .. ....    .   ..      . . ...    ..",
"              ......       ..  . ..       ...      .    ...  .. ",
"              ......      ... .. ...   .  ....     .  .  ...... ",
"             .......     ...  ..  ...     ....     .  .   ....  ",
"             ........    ...  ...  ....    ....   ..   .  ....  ",
"            .........    .... ....  ..     ........    .  ....  ",
"            .........    ....  .......      .....      .  ....  ",
"           ..........    .....  ... .                   . ....  ",
"      .   ............   ......    ..                   . ....  ",
"     ...  ............    ..........                     .....  ",
"      ... ............     .......                       ....   ",
"..     ................      ...                         ....   ",
"..     ................                                   ..    ",
"..      .. ............                                   .     ",
"...    ... ............                           ....          ",
" ...  ...  .............                          ....   ...    ",
" ........  .............          ..              ...........   ",
"   ......   ............      ......               ..........   ",
"     .....  .....  ......      ......            ............   ",
"      .....      .  .....      ......          ...............  ",
"      ............. .....      .......   .....................  ",
"       ............. ... ...................................... ",
"        ........... ... ....................................... ",
"          .......  ... ........................................ ",
"                 .... ......................................... ",
"              ...... .........................................  ",
"              ..... .........................................   ",
"               ... ........................................     ",
"              .   .......................................       ",
"              .........................................         ",
"               ......................................           ",
"               ....................................             ",
"               ..................................               ",
"               ................................                 ",
"                ............................                    ",
"                ........................         ....           ",
"                ....................          .........         ",
"                ................             ...........        ",
"                 ..........                 ............        ",
"                  ......                   ...........          ",
"                           ........       ..........            ",
"                         ............     ........              ",
"                        ..............   .......                ",
"                       ................  ......                 ",
"                       ................  ....                   ",
"                       ................   .                     ",
"   ..........             .                                     ",
"   ..........            ..       ..  ...........  ..       ..  ",
"   ....    ..            ..       ..  ..      ...  ..       .   ",
"   ....    ..            ..       ..  .       ..   ..       .   ",
"   ....    ..            ..       ..  .      ..    ..       .   ",
"   ....    ..            ...      ..  .      ..    ..       .   ",
"   ....    ..             ...    ...  .     ..     ..       .   ",
"   ....    ..              .......          ..     ..       .   ",
"   .....   ...  ........    .....          ..      ...     ..   ",
"   ............ .      .     ....         ...       ...  ...    ",
"   .....    ... .      .    ......        ..          .....     ",
"   ....      .. .      .   ...  ...      ...          ....      ",
"   ....      .. .      .  ..     ...     ..           ....      ",
"   ....      .. .    ... ..       ..    ..    ...     ....      ",
"   ....      .. .    ... ..       ..    ..   ....     ....      ",
"   ....      .. .    ... ..       ..   ..    ....     ....      ",
"   ....      .. .    ... ..       ..   ..     ...     ....      ",
"   ............ .    ... ..       ..  ...    ....     ....      ",
"   ............ ........ ..       ..  ...........     ....      "};
